<svg xmlns="http://www.w3.org/2000/svg" width="46.015" height="89.963" viewBox="0 0 46.015 89.963">
  <path id="Tracé_122" data-name="Tracé 122" d="M16118.414,11999.913a16.784,16.784,0,0,0,7.076-7.828c2.66-5.719,3.566-15.048,3.566-15.048s.795,9.329,3.083,15.048,6.07,7.828,6.07,7.828a26.994,26.994,0,0,0-6.07,8.911,56.216,56.216,0,0,0-3.083,13.141s-.906-7.628-3.566-13.141A27.464,27.464,0,0,0,16118.414,11999.913Z" transform="translate(-16093.05 -11976.988)" fill="#fff" stroke="#fff" stroke-width="1"/>
  <path id="Tracé_123" data-name="Tracé 123" d="M16118.414,11999.913a16.784,16.784,0,0,0,7.076-7.828c2.66-5.719,3.566-15.048,3.566-15.048s.795,9.329,3.083,15.048,6.07,7.828,6.07,7.828a26.994,26.994,0,0,0-6.07,8.911,56.216,56.216,0,0,0-3.083,13.141s-.906-7.628-3.566-13.141A27.464,27.464,0,0,0,16118.414,11999.913Z" transform="translate(-16117.464 -11932.061)" fill="#fff" stroke="#fff" stroke-width="1"/>
</svg>
